M48
;DRILL file {KiCad 4.0.4-stable} date Thursday, April 12, 2018 'PMt' 12:11:27 PM
;FORMAT={3:3/ absolute / metric / suppress leading zeros}
FMAT,2
METRIC,TZ
T1C0.800
T2C1.000
T3C1.300
T4C2.400
T5C3.200
%
G90
G05
M71
T1
X70300Y-86400
X72100Y-76400
X74300Y-73700
X77000Y-69400
T2
X81260Y-68380
X81260Y-70920
X81260Y-73460
X81260Y-76000
X81260Y-78540
X81260Y-81080
X81260Y-83620
X81260Y-86160
X81260Y-88700
X81260Y-91240
X81260Y-93780
X81260Y-96320
X81260Y-98860
X81260Y-101400
X86360Y-68380
X86360Y-70920
X86360Y-73460
X86360Y-76000
X86360Y-78540
X86360Y-81080
X86360Y-83620
X86360Y-86160
X86360Y-88700
X86360Y-91240
X86360Y-93780
X86360Y-96320
X86360Y-98860
X86360Y-101400
X88900Y-101400
X88900Y-106500
X91440Y-101400
X91440Y-106500
X92000Y-52900
X93980Y-101400
X93980Y-106500
X94540Y-52900
X96520Y-101400
X96520Y-106500
X99060Y-101400
X99060Y-106500
X101600Y-68380
X101600Y-70920
X101600Y-73460
X101600Y-76000
X101600Y-78540
X101600Y-81080
X101600Y-83620
X101600Y-86160
X101600Y-88700
X101600Y-91240
X101600Y-93780
X101600Y-96320
X101600Y-98860
X101600Y-101400
X106700Y-68380
X106700Y-70920
X106700Y-73460
X106700Y-76000
X106700Y-78540
X106700Y-81080
X106700Y-83620
X106700Y-86160
X106700Y-88700
X106700Y-91240
X106700Y-93780
X106700Y-96320
X106700Y-98860
X106700Y-101400
T3
X52800Y-57600
X52800Y-62600
X52800Y-78000
X52800Y-83000
X52800Y-98400
X52800Y-103400
X62800Y-52600
X62800Y-60100
X62800Y-67600
X62800Y-73000
X62800Y-80500
X62800Y-88000
X62800Y-93400
X62800Y-100900
X62800Y-108400
X65300Y-55100
X65300Y-65100
X65300Y-75500
X65300Y-85500
X65300Y-95900
X65300Y-105900
T4
X57800Y-52600
X57800Y-67600
X57800Y-73000
X57800Y-88000
X57800Y-93400
X57800Y-108400
T5
X70800Y-53000
X70800Y-108000
X105800Y-53000
X105800Y-108000
T0
M30
