G04 #@! TF.FileFunction,Soldermask,Bot*
%FSLAX46Y46*%
G04 Gerber Fmt 4.6, Leading zero omitted, Abs format (unit mm)*
G04 Created by KiCad (PCBNEW 4.0.4-stable) date Thursday, April 12, 2018 'PMt' 12:11:18 PM*
%MOMM*%
%LPD*%
G01*
G04 APERTURE LIST*
%ADD10C,0.100000*%
%ADD11C,3.600000*%
%ADD12C,2.100000*%
%ADD13O,2.100000X2.100000*%
%ADD14C,2.800000*%
G04 APERTURE END LIST*
D10*
D11*
X105800000Y-53000000D03*
X105800000Y-108000000D03*
X70800000Y-108000000D03*
X70800000Y-53000000D03*
D12*
X81260000Y-68380000D03*
D13*
X81260000Y-70920000D03*
X81260000Y-73460000D03*
X81260000Y-76000000D03*
X81260000Y-78540000D03*
X81260000Y-81080000D03*
X81260000Y-83620000D03*
X81260000Y-86160000D03*
X81260000Y-88700000D03*
X81260000Y-91240000D03*
X81260000Y-93780000D03*
X81260000Y-96320000D03*
X81260000Y-98860000D03*
X81260000Y-101400000D03*
D12*
X88900000Y-106500000D03*
D13*
X91440000Y-106500000D03*
X93980000Y-106500000D03*
X96520000Y-106500000D03*
X99060000Y-106500000D03*
D12*
X106700000Y-68380000D03*
D13*
X106700000Y-70920000D03*
X106700000Y-73460000D03*
X106700000Y-76000000D03*
X106700000Y-78540000D03*
X106700000Y-81080000D03*
X106700000Y-83620000D03*
X106700000Y-86160000D03*
X106700000Y-88700000D03*
X106700000Y-91240000D03*
X106700000Y-93780000D03*
X106700000Y-96320000D03*
X106700000Y-98860000D03*
X106700000Y-101400000D03*
D12*
X101600000Y-101400000D03*
X101600000Y-98860000D03*
X101600000Y-96320000D03*
X101600000Y-93780000D03*
X101600000Y-91240000D03*
X101600000Y-88700000D03*
X101600000Y-86160000D03*
X101600000Y-83620000D03*
X101600000Y-81080000D03*
X101600000Y-78540000D03*
X101600000Y-76000000D03*
X101600000Y-73460000D03*
X101600000Y-70920000D03*
X101600000Y-68380000D03*
X86360000Y-68380000D03*
X86360000Y-70920000D03*
X86360000Y-73460000D03*
X86360000Y-76000000D03*
X86360000Y-78540000D03*
X86360000Y-81080000D03*
X86360000Y-83620000D03*
X86360000Y-86160000D03*
X86360000Y-88700000D03*
X86360000Y-91240000D03*
X86360000Y-93780000D03*
X86360000Y-96320000D03*
X86360000Y-98860000D03*
X86360000Y-101400000D03*
X88900000Y-101400000D03*
X91440000Y-101400000D03*
X93980000Y-101400000D03*
X96520000Y-101400000D03*
X99060000Y-101400000D03*
X92000000Y-52900000D03*
D13*
X94540000Y-52900000D03*
D14*
X57800000Y-52600000D03*
X57800000Y-67600000D03*
X62800000Y-52600000D03*
X62800000Y-60100000D03*
X62800000Y-67600000D03*
X65300000Y-55100000D03*
X65300000Y-65100000D03*
X52800000Y-57600000D03*
X52800000Y-62600000D03*
X57800000Y-73000000D03*
X57800000Y-88000000D03*
X62800000Y-73000000D03*
X62800000Y-80500000D03*
X62800000Y-88000000D03*
X65300000Y-75500000D03*
X65300000Y-85500000D03*
X52800000Y-78000000D03*
X52800000Y-83000000D03*
X57800000Y-93400000D03*
X57800000Y-108400000D03*
X62800000Y-93400000D03*
X62800000Y-100900000D03*
X62800000Y-108400000D03*
X65300000Y-95900000D03*
X65300000Y-105900000D03*
X52800000Y-98400000D03*
X52800000Y-103400000D03*
M02*
